<svg xmlns="http://www.w3.org/2000/svg" viewBox="0 0 64 64" fill="none">
  <rect width="64" height="64" rx="18" fill="#0F1015"/>
  <path d="M24 16H34V34.5C34 39.2 37.8 43 42.5 43C45 43 47.3 41.9 49 40V49.6C47 50.5 44.8 51 42.5 51C33.4 51 26 43.6 26 34.5V24H24V16Z" fill="#25F4EE"/>
  <path d="M22 14H32V32.5C32 37.2 35.8 41 40.5 41C43 41 45.3 39.9 47 38V47.6C45 48.5 42.8 49 40.5 49C31.4 49 24 41.6 24 32.5V22H22V14Z" fill="#FE2C55"/>
  <path d="M32 14V24.5C34.8 27.1 38.2 28.7 42 29V20.8C38.2 20.2 34.8 17.8 32 14Z" fill="white"/>
</svg>
